<!DOCTYPE svg PUBLIC "-//W3C//DTD SVG 1.1//EN" "http://www.w3.org/Graphics/SVG/1.1/DTD/svg11.dtd">

<!-- Uploaded to: SVG Repo, www.svgrepo.com, Transformed by: SVG Repo Mixer Tools -->
<svg fill="#BFBFBF" width="800px" height="800px" viewBox="0 0 24 24" xmlns="http://www.w3.org/2000/svg">

<g id="SVGRepo_bgCarrier" stroke-width="0"/>

<g id="SVGRepo_tracerCarrier" stroke-linecap="round" stroke-linejoin="round"/>

<g id="SVGRepo_iconCarrier">

<path d="m21.484 11.125-9.022-5a1 1 0 0 0-.968-.001l-8.978 4.96a1 1 0 0 0-.003 1.749l9.022 5.04a.995.995 0 0 0 .973.001l8.978-5a1 1 0 0 0-.002-1.749z"/>

<path d="M20.515 15.126 12 19.856l-8.515-4.73-.971 1.748 9 5a1 1 0 0 0 .971 0l9-5-.97-1.748zM16 4h6v2h-6z"/>

</g>

</svg>