<!DOCTYPE svg PUBLIC "-//W3C//DTD SVG 1.1//EN" "http://www.w3.org/Graphics/SVG/1.1/DTD/svg11.dtd">
<!-- Uploaded to: SVG Repo, www.svgrepo.com, Transformed by: SVG Repo Mixer Tools -->
<svg height="800px" width="800px" version="1.1" id="Capa_1" xmlns="http://www.w3.org/2000/svg" xmlns:xlink="http://www.w3.org/1999/xlink" viewBox="-1.92 -1.92 195.77 195.77" xml:space="preserve" fill="#4ade80" stroke="#4ade80" stroke-width="3.8385399999999996">
<g id="SVGRepo_bgCarrier" stroke-width="0"/>
<g id="SVGRepo_tracerCarrier" stroke-linecap="round" stroke-linejoin="round"/>
<g id="SVGRepo_iconCarrier"> <g> <g> <polygon style="fill:#010002;" points="128.613,116.799 95.967,84.153 63.321,116.799 65.915,119.394 94.131,91.175 94.131,169.673 97.803,169.673 97.803,91.178 126.015,119.394 "/> <path style="fill:#010002;" d="M146.597,59.445c-6.914-11.531-19.383-18.635-32.868-18.635c-3.089,0-6.199,0.387-9.262,1.152 c-6.778-12.193-19.465-19.709-33.466-19.709c-20.603,0-37.46,16.341-38.272,36.934C13.961,61.918,0,77.94,0,97.094 c0,21.13,17.189,38.319,38.319,38.319H76.58v-3.579H38.326c-19.158,0-34.74-15.586-34.74-34.74 c0-17.844,13.367-32.696,31.093-34.543l1.593-0.372v-1.61c0-19.154,15.582-34.736,34.736-34.736 c13.131,0,24.991,7.297,30.957,19.039l0.673,1.321l1.421-0.412c3.196-0.927,6.446-1.396,9.674-1.396 c12.619,0,24.268,6.871,30.395,17.934l0.648,1.167l1.303-0.286c22.268-4.914,42.273,12.279,42.273,33.895 c0,19.15-15.582,34.74-34.74,34.74H115.06v3.579h38.548c21.13,0,38.319-17.189,38.319-38.319 C191.927,73.667,170.607,54.957,146.597,59.445z"/> </g> </g> </g>
</svg>